{
    "asset" : {
        "generator" : "Khronos glTF Blender I/O v1.0.5",
        "version" : "2.0"
    },
    "scene" : 0,
    "scenes" : [
        {
            "name" : "Scene",
            "nodes" : [
                2,
                3
            ]
        }
    ],
    "nodes" : [
        {
            "mesh" : 0,
            "name" : "Chairs"
        },
        {
            "mesh" : 1,
            "name" : "Lecturn"
        },
        {
            "children" : [
                0,
                1
            ],
            "mesh" : 2,
            "name" : "Stage",
            "rotation" : [
                0.5,
                -0.5,
                -0.5,
                0.4999999701976776
            ],
            "scale" : [
                0.4000000059604645,
                1,
                0.5999999642372131
            ],
            "translation" : [
                1.1712779998779297,
                0.6130101680755615,
                0.11003899574279785
            ]
        },
        {
            "mesh" : 3,
            "name" : "Floor",
            "rotation" : [
                0.5,
                -0.5,
                -0.5,
                0.4999999701976776
            ],
            "scale" : [
                0.4000000059604645,
                1,
                0.5999999642372131
            ],
            "translation" : [
                1.1712779998779297,
                0.6130101680755615,
                0.11003899574279785
            ]
        }
    ],
    "materials" : [
        {
            "doubleSided" : true,
            "name" : "Material",
            "pbrMetallicRoughness" : {}
        },
        {
            "doubleSided" : true,
            "name" : "Material.004",
            "pbrMetallicRoughness" : {}
        },
        {
            "doubleSided" : true,
            "name" : "Material.003",
            "pbrMetallicRoughness" : {}
        },
        {
            "doubleSided" : true,
            "name" : "Material.008",
            "pbrMetallicRoughness" : {
                "baseColorTexture" : {
                    "index" : 0,
                    "texCoord" : 0
                },
                "metallicFactor" : 0,
                "roughnessFactor" : 0.5
            }
        }
    ],
    "meshes" : [
        {
            "name" : "Plane.000",
            "primitives" : [
                {
                    "attributes" : {
                        "POSITION" : 0,
                        "NORMAL" : 1
                    },
                    "indices" : 2,
                    "material" : 0
                },
                {
                    "attributes" : {
                        "POSITION" : 3,
                        "NORMAL" : 4
                    },
                    "indices" : 5,
                    "material" : 0
                },
                {
                    "attributes" : {
                        "POSITION" : 6,
                        "NORMAL" : 7
                    },
                    "indices" : 8,
                    "material" : 0
                },
                {
                    "attributes" : {
                        "POSITION" : 9,
                        "NORMAL" : 10
                    },
                    "indices" : 11,
                    "material" : 0
                },
                {
                    "attributes" : {
                        "POSITION" : 12,
                        "NORMAL" : 13
                    },
                    "indices" : 14,
                    "material" : 0
                },
                {
                    "attributes" : {
                        "POSITION" : 15,
                        "NORMAL" : 16
                    },
                    "indices" : 17,
                    "material" : 0
                },
                {
                    "attributes" : {
                        "POSITION" : 18,
                        "NORMAL" : 19
                    },
                    "indices" : 20,
                    "material" : 0
                },
                {
                    "attributes" : {
                        "POSITION" : 21,
                        "NORMAL" : 22
                    },
                    "indices" : 23,
                    "material" : 0
                },
                {
                    "attributes" : {
                        "POSITION" : 24,
                        "NORMAL" : 25
                    },
                    "indices" : 26,
                    "material" : 0
                },
                {
                    "attributes" : {
                        "POSITION" : 27,
                        "NORMAL" : 28
                    },
                    "indices" : 29,
                    "material" : 0
                },
                {
                    "attributes" : {
                        "POSITION" : 30,
                        "NORMAL" : 31
                    },
                    "indices" : 32,
                    "material" : 0
                }
            ]
        },
        {
            "name" : "Plane.001",
            "primitives" : [
                {
                    "attributes" : {
                        "POSITION" : 33,
                        "NORMAL" : 34
                    },
                    "indices" : 35,
                    "material" : 1
                }
            ]
        },
        {
            "name" : "Plane.010",
            "primitives" : [
                {
                    "attributes" : {
                        "POSITION" : 36,
                        "NORMAL" : 37
                    },
                    "indices" : 38,
                    "material" : 2
                }
            ]
        },
        {
            "name" : "Plane.004",
            "primitives" : [
                {
                    "attributes" : {
                        "POSITION" : 39,
                        "NORMAL" : 40,
                        "TEXCOORD_0" : 41
                    },
                    "indices" : 42,
                    "material" : 3
                }
            ]
        }
    ],
    "textures" : [
        {
            "source" : 0
        }
    ],
    "images" : [
        {
            "mimeType" : "image/png",
            "name" : "Material",
            "uri" : "Material.png"
        }
    ],
    "accessors" : [
        {
            "bufferView" : 0,
            "componentType" : 5126,
            "count" : 65535,
            "max" : [
                1.4683575630187988,
                4.112943649291992,
                6.533727169036865
            ],
            "min" : [
                -1.146475076675415,
                -3.6432113647460938,
                -5.13538932800293
            ],
            "type" : "VEC3"
        },
        {
            "bufferView" : 1,
            "componentType" : 5126,
            "count" : 65535,
            "type" : "VEC3"
        },
        {
            "bufferView" : 2,
            "componentType" : 5123,
            "count" : 99954,
            "type" : "SCALAR"
        },
        {
            "bufferView" : 3,
            "componentType" : 5126,
            "count" : 65533,
            "max" : [
                1.4683568477630615,
                4.1014909744262695,
                6.536317825317383
            ],
            "min" : [
                -1.1464754343032837,
                -3.643697500228882,
                -5.134056091308594
            ],
            "type" : "VEC3"
        },
        {
            "bufferView" : 4,
            "componentType" : 5126,
            "count" : 65533,
            "type" : "VEC3"
        },
        {
            "bufferView" : 5,
            "componentType" : 5123,
            "count" : 99828,
            "type" : "SCALAR"
        },
        {
            "bufferView" : 6,
            "componentType" : 5126,
            "count" : 65531,
            "max" : [
                1.4683573246002197,
                4.113472938537598,
                6.542278289794922
            ],
            "min" : [
                -1.1464754343032837,
                -3.6408305168151855,
                -5.135614395141602
            ],
            "type" : "VEC3"
        },
        {
            "bufferView" : 7,
            "componentType" : 5126,
            "count" : 65531,
            "type" : "VEC3"
        },
        {
            "bufferView" : 8,
            "componentType" : 5123,
            "count" : 99903,
            "type" : "SCALAR"
        },
        {
            "bufferView" : 9,
            "componentType" : 5126,
            "count" : 65532,
            "max" : [
                1.4683568477630615,
                4.110678195953369,
                5.425434112548828
            ],
            "min" : [
                -1.1464756727218628,
                -3.6429343223571777,
                -5.101339340209961
            ],
            "type" : "VEC3"
        },
        {
            "bufferView" : 10,
            "componentType" : 5126,
            "count" : 65532,
            "type" : "VEC3"
        },
        {
            "bufferView" : 11,
            "componentType" : 5123,
            "count" : 99996,
            "type" : "SCALAR"
        },
        {
            "bufferView" : 12,
            "componentType" : 5126,
            "count" : 65533,
            "max" : [
                1.4683570861816406,
                4.113475799560547,
                5.4346604347229
            ],
            "min" : [
                -1.1464756727218628,
                -3.643695116043091,
                -5.096776962280273
            ],
            "type" : "VEC3"
        },
        {
            "bufferView" : 13,
            "componentType" : 5126,
            "count" : 65533,
            "type" : "VEC3"
        },
        {
            "bufferView" : 14,
            "componentType" : 5123,
            "count" : 99795,
            "type" : "SCALAR"
        },
        {
            "bufferView" : 15,
            "componentType" : 5126,
            "count" : 65530,
            "max" : [
                1.4683563709259033,
                4.112730026245117,
                5.21540641784668
            ],
            "min" : [
                -1.1464757919311523,
                -3.637219190597534,
                -5.127599716186523
            ],
            "type" : "VEC3"
        },
        {
            "bufferView" : 16,
            "componentType" : 5126,
            "count" : 65530,
            "type" : "VEC3"
        },
        {
            "bufferView" : 17,
            "componentType" : 5123,
            "count" : 99957,
            "type" : "SCALAR"
        },
        {
            "bufferView" : 18,
            "componentType" : 5126,
            "count" : 65531,
            "max" : [
                1.4683568477630615,
                4.113475799560547,
                5.311220169067383
            ],
            "min" : [
                -1.146475911140442,
                -3.643695116043091,
                -5.144207000732422
            ],
            "type" : "VEC3"
        },
        {
            "bufferView" : 19,
            "componentType" : 5126,
            "count" : 65531,
            "type" : "VEC3"
        },
        {
            "bufferView" : 20,
            "componentType" : 5123,
            "count" : 99813,
            "type" : "SCALAR"
        },
        {
            "bufferView" : 21,
            "componentType" : 5126,
            "count" : 65533,
            "max" : [
                1.4683563709259033,
                4.112730026245117,
                5.389303207397461
            ],
            "min" : [
                -1.1464762687683105,
                -3.6416141986846924,
                -5.176626205444336
            ],
            "type" : "VEC3"
        },
        {
            "bufferView" : 22,
            "componentType" : 5126,
            "count" : 65533,
            "type" : "VEC3"
        },
        {
            "bufferView" : 23,
            "componentType" : 5123,
            "count" : 99954,
            "type" : "SCALAR"
        },
        {
            "bufferView" : 24,
            "componentType" : 5126,
            "count" : 65534,
            "max" : [
                1.4683563709259033,
                4.112946510314941,
                5.3932576179504395
            ],
            "min" : [
                -1.1464763879776,
                -3.643695116043091,
                -5.1442718505859375
            ],
            "type" : "VEC3"
        },
        {
            "bufferView" : 25,
            "componentType" : 5126,
            "count" : 65534,
            "type" : "VEC3"
        },
        {
            "bufferView" : 26,
            "componentType" : 5123,
            "count" : 99852,
            "type" : "SCALAR"
        },
        {
            "bufferView" : 27,
            "componentType" : 5126,
            "count" : 8112,
            "max" : [
                1.4683563709259033,
                4.113475799560547,
                6.1407976150512695
            ],
            "min" : [
                -0.8193713426589966,
                -3.613234758377075,
                -5.142923355102539
            ],
            "type" : "VEC3"
        },
        {
            "bufferView" : 28,
            "componentType" : 5126,
            "count" : 8112,
            "type" : "VEC3"
        },
        {
            "bufferView" : 29,
            "componentType" : 5123,
            "count" : 12399,
            "type" : "SCALAR"
        },
        {
            "bufferView" : 30,
            "componentType" : 5126,
            "count" : 52,
            "max" : [
                0.2586050033569336,
                3.9164133071899414,
                5.995490550994873
            ],
            "min" : [
                -0.3282017707824707,
                -2.9201154708862305,
                -4.85609245300293
            ],
            "type" : "VEC3"
        },
        {
            "bufferView" : 31,
            "componentType" : 5126,
            "count" : 52,
            "type" : "VEC3"
        },
        {
            "bufferView" : 32,
            "componentType" : 5123,
            "count" : 78,
            "type" : "SCALAR"
        },
        {
            "bufferView" : 33,
            "componentType" : 5126,
            "count" : 96,
            "max" : [
                0.2516787052154541,
                0.5668091773986816,
                10.66231918334961
            ],
            "min" : [
                -1.7272989749908447,
                -0.054575443267822266,
                9.963144302368164
            ],
            "type" : "VEC3"
        },
        {
            "bufferView" : 34,
            "componentType" : 5126,
            "count" : 96,
            "type" : "VEC3"
        },
        {
            "bufferView" : 35,
            "componentType" : 5123,
            "count" : 144,
            "type" : "SCALAR"
        },
        {
            "bufferView" : 36,
            "componentType" : 5126,
            "count" : 430,
            "max" : [
                1.4846827983856201,
                3.973897933959961,
                13.848127365112305
            ],
            "min" : [
                0.23468232154846191,
                -3.4694976806640625,
                8.86043930053711
            ],
            "type" : "VEC3"
        },
        {
            "bufferView" : 37,
            "componentType" : 5126,
            "count" : 430,
            "type" : "VEC3"
        },
        {
            "bufferView" : 38,
            "componentType" : 5123,
            "count" : 804,
            "type" : "SCALAR"
        },
        {
            "bufferView" : 39,
            "componentType" : 5126,
            "count" : 4,
            "max" : [
                1.4559326171875,
                4.271690368652344,
                14.012374877929688
            ],
            "min" : [
                1.455930471420288,
                -3.8358850479125977,
                -9.358909606933594
            ],
            "type" : "VEC3"
        },
        {
            "bufferView" : 40,
            "componentType" : 5126,
            "count" : 4,
            "type" : "VEC3"
        },
        {
            "bufferView" : 41,
            "componentType" : 5126,
            "count" : 4,
            "type" : "VEC2"
        },
        {
            "bufferView" : 42,
            "componentType" : 5123,
            "count" : 6,
            "type" : "SCALAR"
        }
    ],
    "bufferViews" : [
        {
            "buffer" : 0,
            "byteLength" : 786420,
            "byteOffset" : 0
        },
        {
            "buffer" : 0,
            "byteLength" : 786420,
            "byteOffset" : 786420
        },
        {
            "buffer" : 0,
            "byteLength" : 199908,
            "byteOffset" : 1572840
        },
        {
            "buffer" : 0,
            "byteLength" : 786396,
            "byteOffset" : 1772748
        },
        {
            "buffer" : 0,
            "byteLength" : 786396,
            "byteOffset" : 2559144
        },
        {
            "buffer" : 0,
            "byteLength" : 199656,
            "byteOffset" : 3345540
        },
        {
            "buffer" : 0,
            "byteLength" : 786372,
            "byteOffset" : 3545196
        },
        {
            "buffer" : 0,
            "byteLength" : 786372,
            "byteOffset" : 4331568
        },
        {
            "buffer" : 0,
            "byteLength" : 199806,
            "byteOffset" : 5117940
        },
        {
            "buffer" : 0,
            "byteLength" : 786384,
            "byteOffset" : 5317748
        },
        {
            "buffer" : 0,
            "byteLength" : 786384,
            "byteOffset" : 6104132
        },
        {
            "buffer" : 0,
            "byteLength" : 199992,
            "byteOffset" : 6890516
        },
        {
            "buffer" : 0,
            "byteLength" : 786396,
            "byteOffset" : 7090508
        },
        {
            "buffer" : 0,
            "byteLength" : 786396,
            "byteOffset" : 7876904
        },
        {
            "buffer" : 0,
            "byteLength" : 199590,
            "byteOffset" : 8663300
        },
        {
            "buffer" : 0,
            "byteLength" : 786360,
            "byteOffset" : 8862892
        },
        {
            "buffer" : 0,
            "byteLength" : 786360,
            "byteOffset" : 9649252
        },
        {
            "buffer" : 0,
            "byteLength" : 199914,
            "byteOffset" : 10435612
        },
        {
            "buffer" : 0,
            "byteLength" : 786372,
            "byteOffset" : 10635528
        },
        {
            "buffer" : 0,
            "byteLength" : 786372,
            "byteOffset" : 11421900
        },
        {
            "buffer" : 0,
            "byteLength" : 199626,
            "byteOffset" : 12208272
        },
        {
            "buffer" : 0,
            "byteLength" : 786396,
            "byteOffset" : 12407900
        },
        {
            "buffer" : 0,
            "byteLength" : 786396,
            "byteOffset" : 13194296
        },
        {
            "buffer" : 0,
            "byteLength" : 199908,
            "byteOffset" : 13980692
        },
        {
            "buffer" : 0,
            "byteLength" : 786408,
            "byteOffset" : 14180600
        },
        {
            "buffer" : 0,
            "byteLength" : 786408,
            "byteOffset" : 14967008
        },
        {
            "buffer" : 0,
            "byteLength" : 199704,
            "byteOffset" : 15753416
        },
        {
            "buffer" : 0,
            "byteLength" : 97344,
            "byteOffset" : 15953120
        },
        {
            "buffer" : 0,
            "byteLength" : 97344,
            "byteOffset" : 16050464
        },
        {
            "buffer" : 0,
            "byteLength" : 24798,
            "byteOffset" : 16147808
        },
        {
            "buffer" : 0,
            "byteLength" : 624,
            "byteOffset" : 16172608
        },
        {
            "buffer" : 0,
            "byteLength" : 624,
            "byteOffset" : 16173232
        },
        {
            "buffer" : 0,
            "byteLength" : 156,
            "byteOffset" : 16173856
        },
        {
            "buffer" : 0,
            "byteLength" : 1152,
            "byteOffset" : 16174012
        },
        {
            "buffer" : 0,
            "byteLength" : 1152,
            "byteOffset" : 16175164
        },
        {
            "buffer" : 0,
            "byteLength" : 288,
            "byteOffset" : 16176316
        },
        {
            "buffer" : 0,
            "byteLength" : 5160,
            "byteOffset" : 16176604
        },
        {
            "buffer" : 0,
            "byteLength" : 5160,
            "byteOffset" : 16181764
        },
        {
            "buffer" : 0,
            "byteLength" : 1608,
            "byteOffset" : 16186924
        },
        {
            "buffer" : 0,
            "byteLength" : 48,
            "byteOffset" : 16188532
        },
        {
            "buffer" : 0,
            "byteLength" : 48,
            "byteOffset" : 16188580
        },
        {
            "buffer" : 0,
            "byteLength" : 32,
            "byteOffset" : 16188628
        },
        {
            "buffer" : 0,
            "byteLength" : 12,
            "byteOffset" : 16188660
        }
    ],
    "buffers" : [
        {
            "byteLength" : 16188672,
            "uri" : "Small Stage V3.bin"
        }
    ]
}
