{
  "accessors": [
    {
      "bufferView": 1,
      "componentType": 5126,
      "count": 65532,
      "max": [
        1.4683599472045898,
        8.5978899002075195,
        4.1134800910949707
      ],
      "min": [
        -4.5187101364135742,
        -12.007209777832031,
        -3.6436998844146729
      ],
      "type": "VEC3"
    },
    {
      "bufferView": 1,
      "byteOffset": 786384,
      "componentType": 5126,
      "count": 65532,
      "max": [
        1,
        1,
        1
      ],
      "min": [
        -1,
        -1,
        -1
      ],
      "type": "VEC3"
    },
    {
      "bufferView": 0,
      "componentType": 5125,
      "count": 354120,
      "max": [
        65531
      ],
      "min": [
        0
      ],
      "type": "SCALAR"
    },
    {
      "bufferView": 1,
      "byteOffset": 1572768,
      "componentType": 5126,
      "count": 65532,
      "max": [
        1.4846800565719604,
        9.3589096069335938,
        4.2716898918151855
      ],
      "min": [
        -6.8812799453735352,
        -14.012370109558105,
        -3.8358900547027588
      ],
      "type": "VEC3"
    },
    {
      "bufferView": 1,
      "byteOffset": 2359152,
      "componentType": 5126,
      "count": 65532,
      "max": [
        1,
        1,
        1
      ],
      "min": [
        -1,
        -1,
        -1
      ],
      "type": "VEC3"
    },
    {
      "bufferView": 0,
      "byteOffset": 1416480,
      "componentType": 5125,
      "count": 375378,
      "max": [
        65531
      ],
      "min": [
        0
      ],
      "type": "SCALAR"
    },
    {
      "bufferView": 1,
      "byteOffset": 3145536,
      "componentType": 5126,
      "count": 65532,
      "max": [
        1.4683599472045898,
        -1.5374799966812134,
        4.1134700775146484
      ],
      "min": [
        -1.1464799642562866,
        -6.5422801971435547,
        -3.6436998844146729
      ],
      "type": "VEC3"
    },
    {
      "bufferView": 1,
      "byteOffset": 3931920,
      "componentType": 5126,
      "count": 65532,
      "max": [
        1,
        0.99992287158966064,
        0.99999964237213135
      ],
      "min": [
        -1,
        -0.99997490644454956,
        -0.9999995231628418
      ],
      "type": "VEC3"
    },
    {
      "bufferView": 0,
      "byteOffset": 2917992,
      "componentType": 5125,
      "count": 384006,
      "max": [
        65531
      ],
      "min": [
        0
      ],
      "type": "SCALAR"
    },
    {
      "bufferView": 1,
      "byteOffset": 4718304,
      "componentType": 5126,
      "count": 65532,
      "max": [
        1.4683599472045898,
        1.897130012512207,
        4.1134800910949707
      ],
      "min": [
        -1.1464799642562866,
        -3.2695200443267822,
        -3.6436998844146729
      ],
      "type": "VEC3"
    },
    {
      "bufferView": 1,
      "byteOffset": 5504688,
      "componentType": 5126,
      "count": 65532,
      "max": [
        1,
        0.99992287158966064,
        0.99999970197677612
      ],
      "min": [
        -1,
        -0.99997442960739136,
        -0.99999958276748657
      ],
      "type": "VEC3"
    },
    {
      "bufferView": 0,
      "byteOffset": 4454016,
      "componentType": 5125,
      "count": 384672,
      "max": [
        65531
      ],
      "min": [
        0
      ],
      "type": "SCALAR"
    },
    {
      "bufferView": 1,
      "byteOffset": 6291072,
      "componentType": 5126,
      "count": 65532,
      "max": [
        1.4683599472045898,
        5.1766300201416016,
        4.1134800910949707
      ],
      "min": [
        -1.1464799642562866,
        0.1650799959897995,
        -3.6436998844146729
      ],
      "type": "VEC3"
    },
    {
      "bufferView": 1,
      "byteOffset": 7077456,
      "componentType": 5126,
      "count": 65532,
      "max": [
        1,
        0.99992245435714722,
        0.99999970197677612
      ],
      "min": [
        -1,
        -0.9999738335609436,
        -0.9999995231628418
      ],
      "type": "VEC3"
    },
    {
      "bufferView": 0,
      "byteOffset": 5992704,
      "componentType": 5125,
      "count": 384042,
      "max": [
        65531
      ],
      "min": [
        0
      ],
      "type": "SCALAR"
    },
    {
      "bufferView": 1,
      "byteOffset": 7863840,
      "componentType": 5126,
      "count": 60102,
      "max": [
        1.4683599472045898,
        8.6566896438598633,
        4.1134800910949707
      ],
      "min": [
        -1.1464799642562866,
        3.444580078125,
        -3.6436998844146729
      ],
      "type": "VEC3"
    },
    {
      "bufferView": 1,
      "byteOffset": 8585064,
      "componentType": 5126,
      "count": 60102,
      "max": [
        1,
        0.99992257356643677,
        0.99999964237213135
      ],
      "min": [
        -1,
        -0.9999738335609436,
        -0.9999995231628418
      ],
      "type": "VEC3"
    },
    {
      "bufferView": 0,
      "byteOffset": 7528872,
      "componentType": 5125,
      "count": 352131,
      "max": [
        60101
      ],
      "min": [
        0
      ],
      "type": "SCALAR"
    }
  ],
  "asset": {
    "extras": {
      "author": "YouniqueĪdeaStudio (https://sketchfab.com/sinnervoncrawsz)",
      "license": "CC-BY-4.0 (http://creativecommons.org/licenses/by/4.0/)",
      "source": "https://sketchfab.com/3d-models/simple-stage-600a3cda99774bad97f1e3a7c2ea01d7",
      "title": "SIMPLE STAGE"
    },
    "generator": "Sketchfab-4.86.1",
    "version": "2.0"
  },
  "bufferViews": [
    {
      "buffer": 0,
      "byteLength": 8937396,
      "byteOffset": 0,
      "name": "floatBufferViews",
      "target": 34963
    },
    {
      "buffer": 0,
      "byteLength": 9306288,
      "byteOffset": 8937396,
      "byteStride": 12,
      "name": "floatBufferViews",
      "target": 34962
    }
  ],
  "buffers": [
    {
      "byteLength": 18243684,
      "uri": "stage.bin"
    }
  ],
  "materials": [
    {
      "doubleSided": true,
      "emissiveFactor": [
        0,
        0,
        0
      ],
      "name": "Material.001",
      "pbrMetallicRoughness": {
        "baseColorFactor": [
          0.40151038839999997,
          0.43704050589999999,
          0.54214814850000004,
          1
        ],
        "metallicFactor": 1,
        "roughnessFactor": 1
      }
    }
  ],
  "meshes": [
    {
      "name": "STAGE_0",
      "primitives": [
        {
          "attributes": {
            "NORMAL": 1,
            "POSITION": 0
          },
          "indices": 2,
          "material": 0,
          "mode": 4
        }
      ]
    },
    {
      "name": "STAGE_0",
      "primitives": [
        {
          "attributes": {
            "NORMAL": 4,
            "POSITION": 3
          },
          "indices": 5,
          "material": 0,
          "mode": 4
        }
      ]
    },
    {
      "name": "STAGE_0",
      "primitives": [
        {
          "attributes": {
            "NORMAL": 7,
            "POSITION": 6
          },
          "indices": 8,
          "material": 0,
          "mode": 4
        }
      ]
    },
    {
      "name": "STAGE_0",
      "primitives": [
        {
          "attributes": {
            "NORMAL": 10,
            "POSITION": 9
          },
          "indices": 11,
          "material": 0,
          "mode": 4
        }
      ]
    },
    {
      "name": "STAGE_0",
      "primitives": [
        {
          "attributes": {
            "NORMAL": 13,
            "POSITION": 12
          },
          "indices": 14,
          "material": 0,
          "mode": 4
        }
      ]
    },
    {
      "name": "STAGE_0",
      "primitives": [
        {
          "attributes": {
            "NORMAL": 16,
            "POSITION": 15
          },
          "indices": 17,
          "material": 0,
          "mode": 4
        }
      ]
    }
  ],
  "nodes": [
    {
      "children": [
        1
      ],
      "name": "RootNode (gltf orientation matrix)",
      "rotation": [
        -0.70710678118654746,
        -0,
        -0,
        0.70710678118654757
      ]
    },
    {
      "children": [
        2
      ],
      "name": "RootNode (model correction matrix)"
    },
    {
      "children": [
        3,
        5
      ],
      "name": "Root"
    },
    {
      "children": [
        4
      ],
      "matrix": [
        -0.29086000000000006,
        0.95517000000000007,
        -0.05519000000000001,
        0,
        -0.77110000000000001,
        -0.19988000000000003,
        0.60452000000000006,
        0,
        0.56639000000000006,
        0.21839000000000003,
        0.7946700000000001,
        0,
        4.0762500000000008,
        1.00545,
        5.9038600000000008,
        1
      ],
      "name": "Lamp"
    },
    {
      "name": "Lamp"
    },
    {
      "children": [
        6,
        7,
        8,
        9,
        10,
        11
      ],
      "matrix": [
        -0,
        -0,
        -0.40000000000000002,
        0,
        0.60000000000000009,
        -0,
        -0,
        0,
        -0,
        -1,
        0,
        0,
        1.1712800000000001,
        -0.11004000000000001,
        0.61301000000000005,
        1
      ],
      "name": "STAGE"
    },
    {
      "mesh": 0,
      "name": "STAGE_0"
    },
    {
      "mesh": 1,
      "name": "STAGE_0"
    },
    {
      "mesh": 2,
      "name": "STAGE_0"
    },
    {
      "mesh": 3,
      "name": "STAGE_0"
    },
    {
      "mesh": 4,
      "name": "STAGE_0"
    },
    {
      "mesh": 5,
      "name": "STAGE_0"
    }
  ],
  "scene": 0,
  "scenes": [
    {
      "name": "OSG_Scene",
      "nodes": [
        0
      ]
    }
  ]
}

